<?xml version="1.0" encoding="UTF-8" standalone="no"?>
<!-- Created with Inkscape (http://www.inkscape.org/) -->

<svg
   width="8.5in"
   height="11in"
   viewBox="0 0 816 1056"
   version="1.1"
   id="svg1"
   xml:space="preserve"
   inkscape:version="1.3 (0e150ed6c4, 2023-07-21)"
   sodipodi:docname="logorv-4.svg"
   xmlns:inkscape="http://www.inkscape.org/namespaces/inkscape"
   xmlns:sodipodi="http://sodipodi.sourceforge.net/DTD/sodipodi-0.dtd"
   xmlns="http://www.w3.org/2000/svg"
   xmlns:svg="http://www.w3.org/2000/svg"><sodipodi:namedview
     id="namedview1"
     pagecolor="#ffffff"
     bordercolor="#000000"
     borderopacity="0.25"
     inkscape:showpageshadow="2"
     inkscape:pageopacity="0.0"
     inkscape:pagecheckerboard="0"
     inkscape:deskcolor="#d1d1d1"
     inkscape:document-units="in"
     showguides="true"
     inkscape:zoom="0.78693182"
     inkscape:cx="95.942238"
     inkscape:cy="548.33213"
     inkscape:window-width="1920"
     inkscape:window-height="1027"
     inkscape:window-x="-8"
     inkscape:window-y="-8"
     inkscape:window-maximized="1"
     inkscape:current-layer="layer1" /><defs
     id="defs1" /><g
     inkscape:label="Capa 1"
     inkscape:groupmode="layer"
     id="layer1"><path
       style="opacity:1;fill:#ffffff;stroke:none;stroke-width:0.953628;stroke-dasharray:none"
       d="m 128.14368,462.4018 c 0,0 -31.827148,18.64632 -36.886303,33.8008 -12.621799,37.80805 -7.801911,72.42177 -0.109439,108.59376 5.371442,25.25791 19.615322,41.6486 38.503612,41.4273 19.39992,-0.22732 38.39691,-9.44385 39.67262,-18.81191 1.27571,-9.36806 -0.35762,-143.15114 -0.35762,-143.15114 0,0 9.40838,-83.06349 64.902,-132.40196 9.79769,7.21379 17.36826,-6.98616 29.41878,-16.91238 22.30805,-18.37553 41.34259,-28.64076 72.31934,-37.91232 43.76441,-13.09901 94.93483,-16.23476 136.16409,-3.01418 35.04653,11.23803 63.80739,26.25949 80.53243,40.18064 13.43376,11.18162 23.93533,26.00883 31.5896,19.21959 14.35179,13.42756 55.66923,67.0471 60.59645,124.90751 5.69538,66.8808 1.6223,119.35741 2.87037,146.45406 0.47898,10.39912 23.8528,22.43896 39.79924,22.43896 15.94643,0 30.0135,-6.89317 36.88514,-27.1203 9.92273,-29.20823 24.11564,-67.94893 1.28275,-125.28526 -8.40728,-21.11175 -31.44848,-31.27774 -36.55135,-33.77589 -5.10286,-2.49815 -5.47079,-73.718 -74.58399,-142.93683 2.38377,-4.10324 8.34117,-12.9618 -3.12517,-23.67617 -52.47728,-49.03586 -107.90591,-88.70369 -206.98199,-86.32471 -72.44923,1.73963 -120.99672,23.94841 -155.42269,50.05716 -25.89289,19.63724 -48.01937,43.62441 -49.85018,48.32969 -3.76304,9.67113 2.68629,16.64171 2.68629,16.64171 0,0 -33.6602,37.37485 -46.15126,60.73169 -15.83167,29.60342 -27.20234,78.54018 -27.20234,78.54018 z"
       id="path1"
       sodipodi:nodetypes="cssssccsssscsssssscsssscscc" /><path
       style="opacity:1;fill:#ffffff;stroke:#ffffff;stroke-width:9.19489;stroke-linecap:round;stroke-linejoin:round;stroke-dasharray:none;stroke-opacity:1"
       d="m 175.08656,701.47658 h 47.79346 l 12.74493,-68.27272 21.66635,123.39897 28.67608,-123.81098 25.48984,150.73145 27.40158,-177.74654 30.58781,212.4276 34.41129,-250.40254 41.42099,253.73451 28.67607,-211.15685 29.95057,160.91656 28.67608,-137.54356 21.66636,128.24351 26.76434,-120.20696 15.2939,61.6088 h 44.60723"
       id="path2"
       sodipodi:nodetypes="ccccccccccccccccc" /><g
       id="g5"
       transform="matrix(1.0621699,0,0,1.2638352,-31.358252,-191.52093)"
       style="stroke-width:0.994191;stroke-dasharray:none;paint-order:stroke fill markers;fill:#ffffff"><text
         xml:space="preserve"
         style="font-style:normal;font-variant:normal;font-weight:normal;font-stretch:normal;font-size:225.337px;font-family:'Eras Bold ITC';-inkscape-font-specification:'Eras Bold ITC';opacity:1;fill:#ffffff;fill-opacity:1;stroke:none;stroke-width:0.994191;stroke-linecap:round;stroke-linejoin:round;stroke-dasharray:none;stroke-opacity:1;paint-order:stroke fill markers"
         x="227.89214"
         y="603.42407"
         id="text4"><tspan
           sodipodi:role="line"
           id="tspan4"
           x="227.89214"
           y="603.42407"
           style="font-style:normal;font-variant:normal;font-weight:normal;font-stretch:normal;font-family:'Eras Bold ITC';-inkscape-font-specification:'Eras Bold ITC';fill:#ffffff;fill-opacity:1;stroke:none;stroke-width:0.994191;stroke-dasharray:none;paint-order:stroke fill markers">R</tspan></text><text
         xml:space="preserve"
         style="font-style:normal;font-variant:normal;font-weight:normal;font-stretch:normal;font-size:226.903px;font-family:'Eras Bold ITC';-inkscape-font-specification:'Eras Bold ITC';opacity:1;fill:#ffffff;fill-opacity:1;stroke:none;stroke-width:0.994191;stroke-linecap:round;stroke-linejoin:round;stroke-dasharray:none;stroke-opacity:1;paint-order:stroke fill markers"
         x="404.0134"
         y="603.61584"
         id="text5"><tspan
           sodipodi:role="line"
           id="tspan5"
           x="404.0134"
           y="603.61584"
           style="font-style:normal;font-variant:normal;font-weight:normal;font-stretch:normal;font-family:'Eras Bold ITC';-inkscape-font-specification:'Eras Bold ITC';fill:#ffffff;fill-opacity:1;stroke:none;stroke-width:0.994191;stroke-dasharray:none;paint-order:stroke fill markers">V</tspan></text></g></g></svg>
